<?xml version="1.0" standalone="no"?>
<!DOCTYPE svg PUBLIC "-//W3C//DTD SVG 20010904//EN"
 "http://www.w3.org/TR/2001/REC-SVG-20010904/DTD/svg10.dtd">
<svg version="1.0" xmlns="http://www.w3.org/2000/svg"
 width="126" height="150" viewBox="0 0 126.000000 79.000000"
 preserveAspectRatio="xMidYMid meet">
<metadata>
Created by potrace 1.16, written by Peter Selinger 2001-2019
</metadata>
<g transform="translate(0.000000,79.000000) scale(0.100000,-0.100000)"
fill="#6e57e0" stroke="none">
<path d="M474 646 c-46 -21 -84 -57 -84 -78 0 -4 22 -22 49 -39 75 -50 96 -94
96 -204 -1 -70 -5 -100 -22 -138 -24 -51 -32 -56 -56 -29 -33 37 -127 373
-127 456 l0 46 -134 0 -133 0 18 -37 c10 -21 46 -135 80 -255 39 -138 70 -226
84 -245 22 -27 28 -28 115 -32 50 -1 106 0 125 3 38 8 40 11 122 256 56 167
66 251 33 293 -18 23 -29 27 -68 27 -28 0 -67 -10 -98 -24z"/>
<path d="M896 655 c-181 -64 -245 -321 -116 -468 61 -69 136 -102 230 -101 78
0 122 15 168 58 29 26 52 68 52 96 0 24 -8 25 -35 6 -58 -40 -151 -24 -253 44
-107 72 -162 164 -142 239 19 73 93 79 168 16 22 -20 49 -53 58 -75 10 -22 21
-40 24 -40 16 0 150 134 150 150 0 23 -44 55 -101 75 -52 19 -151 19 -203 0z"/>
</g>
</svg>
