<?xml version="1.0" standalone="no"?>
<!DOCTYPE svg PUBLIC "-//W3C//DTD SVG 20010904//EN"
 "http://www.w3.org/TR/2001/REC-SVG-20010904/DTD/svg10.dtd">
<svg version="1.0" xmlns="http://www.w3.org/2000/svg"
 width="150pt" height="110pt" viewBox="0 0 500.000000 500.000000"
 preserveAspectRatio="xMidYMid meet">
<metadata>
Created by potrace 1.16, written by Peter Selinger 2001-2019
</metadata>
<g transform="translate(0.000000,500.000000) scale(0.100000,-0.100000)"
fill="#6e57e0" stroke="none">
<path d="M1044 2776 c-44 -20 -64 -52 -64 -107 0 -84 73 -136 154 -109 101 33
100 191 -1 219 -47 13 -51 13 -89 -3z"/>
<path d="M3435 2776 c-55 -24 -81 -80 -64 -139 19 -70 91 -103 162 -73 39 16
67 61 67 107 0 30 -27 82 -49 96 -31 19 -84 24 -116 9z"/>
<path d="M1960 2588 c-46 -39 -99 -77 -117 -85 -32 -13 -46 -43 -20 -43 39 -1
42 -13 47 -227 5 -228 11 -251 73 -297 35 -26 143 -30 171 -7 16 13 15 16 -11
43 l-28 29 0 227 0 227 33 3 c19 2 32 9 32 17 0 8 -13 15 -32 17 l-33 3 -3 83
c-2 56 -7 82 -15 82 -7 0 -50 -32 -97 -72z"/>
<path d="M733 2476 c-28 -13 -60 -37 -69 -52 -18 -27 -18 -27 11 -48 102 -72
131 -132 122 -248 -6 -69 -38 -158 -56 -158 -14 0 -37 36 -56 90 -36 101 -95
337 -95 382 l0 48 -134 0 -133 0 18 -37 c10 -21 46 -136 81 -256 80 -283 75
-277 225 -277 59 0 114 4 121 9 14 9 62 132 117 302 61 188 47 261 -51 267
-35 2 -64 -5 -101 -22z"/>
<path d="M1090 2476 c-30 -12 -74 -33 -97 -45 l-43 -21 21 -21 c19 -19 20 -30
17 -227 -2 -114 -7 -215 -12 -224 -8 -17 2 -18 124 -18 122 0 131 1 119 17
-11 12 -15 76 -17 290 l-3 273 -27 0 c-15 -1 -52 -11 -82 -24z"/>
<path d="M1446 2485 c-182 -65 -245 -321 -115 -469 120 -137 336 -140 426 -7
22 33 31 81 15 81 -4 0 -16 -6 -27 -14 -58 -40 -151 -24 -253 44 -101 68 -162
171 -142 241 18 62 67 74 135 34 44 -25 87 -75 99 -112 4 -13 11 -23 15 -23
16 0 136 113 146 137 8 22 6 28 -20 49 -65 51 -194 70 -279 39z"/>
<path d="M2355 2472 c-64 -31 -111 -77 -147 -145 -18 -34 -23 -58 -23 -127 0
-76 3 -91 30 -139 136 -245 500 -172 544 109 21 130 -36 242 -151 299 -84 42
-167 43 -253 3z m113 -17 c61 -44 105 -180 106 -330 0 -107 -14 -154 -54 -175
-67 -36 -151 147 -152 330 -1 97 13 153 45 175 27 19 28 19 55 0z"/>
<path d="M3144 2481 c-18 -11 -45 -36 -60 -55 -35 -44 -44 -45 -44 -5 0 64 -9
69 -126 69 -105 0 -105 0 -97 -22 4 -13 8 -134 8 -269 0 -194 -3 -249 -14
-262 -12 -16 -3 -17 119 -17 122 0 132 1 124 18 -10 20 -18 316 -9 350 17 68
88 82 141 27 18 -19 37 -35 43 -35 14 0 91 153 91 180 0 42 -119 56 -176 21z"/>
<path d="M3520 2493 c-24 -8 -175 -75 -179 -79 -3 -3 6 -14 18 -25 22 -21 22
-24 19 -229 -2 -157 -6 -211 -17 -223 -12 -16 -3 -17 119 -17 122 0 132 1 124
18 -5 9 -10 140 -12 290 l-3 272 -27 -1 c-15 0 -34 -3 -42 -6z"/>
<path d="M3778 2485 c-60 -20 -98 -63 -98 -115 0 -90 31 -93 95 -11 68 90 109
113 166 98 40 -10 65 -82 37 -104 -7 -6 -44 -20 -83 -31 -163 -49 -255 -157
-243 -283 13 -131 164 -171 280 -74 24 20 33 23 44 14 8 -6 14 -17 14 -25 0
-25 38 -34 141 -34 93 0 100 1 88 17 -10 12 -15 66 -19 207 -6 209 -10 224
-72 282 -58 56 -93 68 -203 71 -68 2 -115 -2 -147 -12z m208 -220 c3 -13 4
-67 2 -119 -3 -105 -19 -136 -67 -136 -67 1 -98 82 -71 182 23 80 121 133 136
73z"/>
</g>
</svg>
